<?xml version="1.0" encoding="UTF-8" standalone="no"?>
<svg
   xmlns:dc="http://purl.org/dc/elements/1.1/"
   xmlns:cc="http://creativecommons.org/ns#"
   xmlns:rdf="http://www.w3.org/1999/02/22-rdf-syntax-ns#"
   xmlns:svg="http://www.w3.org/2000/svg"
   xmlns="http://www.w3.org/2000/svg"
   xmlns:sodipodi="http://sodipodi.sourceforge.net/DTD/sodipodi-0.dtd"
   xmlns:inkscape="http://www.inkscape.org/namespaces/inkscape"
   version="1.1"
   id="svg10"
   width="1390.5604"
   height="115.5582"
   viewBox="0 0 1390.5604 115.5582"
   sodipodi:docname="fci.svg"
   inkscape:version="1.0.1 (3bc2e813f5, 2020-09-07)">
  <metadata
     id="metadata16">
    <rdf:RDF>
      <cc:Work
         rdf:about="">
        <dc:format>image/svg+xml</dc:format>
        <dc:type
           rdf:resource="http://purl.org/dc/dcmitype/StillImage" />
        <dc:title />
      </cc:Work>
    </rdf:RDF>
  </metadata>
  <defs
     id="defs14">
    <rect
       x="271.79417"
       y="20.439805"
       width="-48.055954"
       height="111.54841"
       id="rect38" />
    <rect
       x="231.46699"
       y="14.363106"
       width="44.50762"
       height="99.947444"
       id="rect32" />
    <rect
       x="249.02344"
       y="9.375"
       width="49.839663"
       height="84.537619"
       id="rect26" />
    <rect
       x="0.077359542"
       y="0.17105614"
       width="1389.312"
       height="114.3098"
       id="rect933" />
    <rect
       x="870.28442"
       y="81.62841"
       width="229.81535"
       height="978.28503"
       id="rect927" />
    <rect
       x="0"
       y="0"
       width="1413.4211"
       height="102"
       id="rect921" />
    <rect
       x="0"
       y="0"
       width="999"
       height="102"
       id="rect915" />
    <rect
       x="0"
       y="0"
       width="999"
       height="102"
       id="rect903" />
  </defs>
  <sodipodi:namedview
     pagecolor="#ffffff"
     bordercolor="#666666"
     borderopacity="1"
     objecttolerance="10"
     gridtolerance="10"
     guidetolerance="10"
     inkscape:pageopacity="0"
     inkscape:pageshadow="2"
     inkscape:window-width="1280"
     inkscape:window-height="961"
     id="namedview12"
     showgrid="false"
     inkscape:snap-page="true"
     inkscape:zoom="0.45254834"
     inkscape:cx="1167.487"
     inkscape:cy="-396.91271"
     inkscape:window-x="-8"
     inkscape:window-y="-8"
     inkscape:window-maximized="1"
     inkscape:current-layer="svg10"
     inkscape:document-rotation="0" />
  <g
     inkscape:groupmode="layer"
     inkscape:label="Image"
     id="g18"
     transform="translate(18.528001,-160.29203)" />
  <path
     id="rect899"
     style="fill:#182231;fill-opacity:1;stroke:#182231;stroke-width:1.2484;stroke-opacity:1"
     d="M 1.2479248,0 V 114.31055 H 277.22253 c -0.11259,-0.56549 -0.19337,-1.16959 -0.19336,-1.85743 10e-6,-0.49579 -3e-5,-0.25615 0,-0.7207 0,-3.52149 -1.4e-4,-7.04296 0,-10.56445 1.8e-4,-7.209864 10e-4,-14.419045 0,-21.628908 5e-5,-2.471295 0.005,-4.942783 0,-7.414062 -0.0579,-3.937853 0.0954,-7.878277 0.0273,-11.816406 -0.0707,-2.247899 -0.0686,-4.478127 0.2168,-6.71875 -0.016,-2.435259 -0.34081,-4.71383 -0.75391,-7.121094 -0.13223,-0.770575 -0.34355,-1.527546 -0.44531,-2.302734 -0.70311,-5.356112 -0.6778,-7.040219 -0.99219,-12.699219 -0.2145,-3.861037 1.62801,-5.899473 3.57813,-6.007813 1.95012,-0.10834 4.00816,1.713183 4.22266,5.574219 0.31364,5.645531 0.27057,7.068223 0.96093,12.300781 0.0714,0.541385 0.24194,1.065583 0.33594,1.603516 0.0469,0.268517 0.76357,4.723117 0.82227,5.511719 0.0739,0.994891 0.056,1.99494 0.084,2.992187 -0.22012,2.21155 -0.29806,4.398754 -0.22266,6.611328 0.0907,3.981521 -0.093,7.966078 -0.0215,11.947266 0.007,2.513083 5e-5,5.025959 0,7.539062 10e-4,7.209899 2.4e-4,14.420968 0,21.630858 -1.4e-4,3.5214 0,7.0411 0,10.5625 -3e-5,0.46499 10e-6,0.22516 0,0.7207 -1e-5,0.68784 -0.0808,1.29194 -0.19336,1.85743 H 1390.5604 V 0 Z" />
  <text
     xml:space="preserve"
     id="text901"
     style="font-style:normal;font-variant:normal;font-weight:normal;font-stretch:normal;font-size:37.3333px;line-height:1.25;font-family:Calibri;-inkscape-font-specification:Calibri;white-space:pre;shape-inside:url(#rect903);"
     transform="translate(18.528001,-160.29203)" />
  <text
     xml:space="preserve"
     id="text913"
     style="font-size:85.3333px;line-height:1.25;font-family:sans-serif;white-space:pre;shape-inside:url(#rect915);"
     transform="translate(18.528001,-160.29203)" />
  <text
     xml:space="preserve"
     id="text919"
     style="font-size:85.3333px;line-height:1.25;font-family:sans-serif;white-space:pre;shape-inside:url(#rect921);fill:#f8ffff;fill-opacity:1;"
     transform="translate(19.783823,-160.29203)" />
  <text
     xml:space="preserve"
     id="text925"
     style="font-size:96px;line-height:1.25;font-family:sans-serif;white-space:pre;shape-inside:url(#rect927);"
     transform="translate(18.528001,-160.29203)" />
  <path
     id="text931"
     style="font-size:85.3333px;line-height:1.25;font-family:sans-serif;white-space:pre;shape-inside:url(#rect933);fill:#f8f8ff;fill-opacity:1"
     d="m 306.15817,18.632813 v 64.832031 h 7.83398 V 18.632813 Z m 238.54101,0 v 20.166015 c -2.08333,-1.083332 -4.06814,-1.875 -5.95703,-2.375 -1.88889,-0.527777 -4.05556,-0.791015 -6.5,-0.791015 -2.69444,0 -5.30621,0.554905 -7.83398,1.666015 -2.5,1.111111 -4.6951,2.722875 -6.58399,4.833985 -1.91666,2.166666 -3.44314,4.791668 -4.58203,7.875 -1.11111,3.083332 -1.66797,6.596573 -1.66797,10.541015 0,7.583331 1.625,13.51324 4.875,17.791016 3.27778,4.277776 7.69445,6.417969 13.25,6.417969 2.86111,0 5.51454,-0.541667 7.95899,-1.625 2.44444,-1.083333 4.79101,-2.598525 7.04101,-4.542969 v 4.875 h 7.83399 V 18.632813 Z m 544.54292,0 v 64.832031 h 7.8321 V 18.632813 Z M 90.283166,20.298828 c -4.555553,0 -8.708986,0.708334 -12.458984,2.125 -3.722221,1.416667 -6.902128,3.471573 -9.541016,6.166016 -2.722221,2.777777 -4.805556,6.181208 -6.25,10.208984 -1.444444,4.027777 -2.166015,8.597876 -2.166015,13.708985 0,5.388887 0.75,10.123699 2.25,14.207031 1.499999,4.055554 3.583334,7.404081 6.25,10.042969 2.722221,2.694443 5.915366,4.679254 9.582031,5.957031 3.694443,1.25 7.792971,1.875 12.292969,1.875 2.388888,0 4.568794,-0.193142 6.541015,-0.582031 1.999999,-0.361111 3.846574,-0.806207 5.541014,-1.333985 2,-0.638888 3.61176,-1.250651 4.83399,-1.833984 1.25,-0.583333 2.63823,-1.208333 4.16601,-1.875 v -9.666016 h -0.58203 c -3.02778,2.722222 -6.27778,4.76389 -9.75,6.125 -3.47222,1.361111 -7.195748,2.041016 -11.167968,2.041016 -2.888888,0 -5.63889,-0.484809 -8.25,-1.457031 -2.583332,-1 -4.846572,-2.52843 -6.791016,-4.583985 -1.86111,-1.972221 -3.38954,-4.527128 -4.583984,-7.666015 -1.166666,-3.138888 -1.75,-6.888891 -1.75,-11.25 0,-4.166665 0.528429,-7.833335 1.583984,-11 1.083333,-3.194443 2.583334,-5.834636 4.5,-7.917969 1.972222,-2.138888 4.208986,-3.707032 6.708985,-4.707031 2.527776,-1.027777 5.361112,-1.542969 8.5,-1.542969 3.833331,0 7.429906,0.653429 10.791019,1.958984 3.36111,1.305556 6.74935,3.388891 10.16601,6.25 h 0.625 v -9.791015 c -4.05555,-2.027777 -7.7487,-3.444445 -11.08203,-4.25 -3.305554,-0.805555 -6.625652,-1.208985 -9.958984,-1.208985 z m 586.000004,0 c -4.55556,0 -8.70899,0.708334 -12.45899,2.125 -3.72222,1.416667 -6.90213,3.471573 -9.54101,6.166016 -2.72222,2.777777 -4.80556,6.181208 -6.25,10.208984 -1.44445,4.027777 -2.16602,8.597876 -2.16602,13.708985 0,5.388887 0.75,10.123699 2.25,14.207031 1.5,4.055554 3.58334,7.404081 6.25,10.042969 2.72222,2.694443 5.91537,4.679254 9.58203,5.957031 3.69444,1.25 7.79297,1.875 12.29297,1.875 2.38889,0 4.56879,-0.193142 6.54102,-0.582031 2,-0.361111 3.84657,-0.806207 5.54101,-1.333985 2,-0.638888 3.61176,-1.250651 4.83399,-1.833984 1.25,-0.583333 2.63823,-1.208333 4.16601,-1.875 v -9.666016 h -0.58203 c -3.02778,2.722222 -6.27778,4.76389 -9.75,6.125 -3.47222,1.361111 -7.19575,2.041016 -11.16797,2.041016 -2.88889,0 -5.63889,-0.484809 -8.25,-1.457031 -2.58333,-1 -4.84657,-2.52843 -6.79101,-4.583985 -1.86111,-1.972221 -3.38954,-4.527128 -4.58399,-7.666015 -1.16666,-3.138888 -1.75,-6.888891 -1.75,-11.25 0,-4.166665 0.52843,-7.833335 1.58399,-11 1.08333,-3.194443 2.58333,-5.834636 4.5,-7.917969 1.97222,-2.138888 4.20898,-3.707032 6.70898,-4.707031 2.52778,-1.027777 5.36111,-1.542969 8.5,-1.542969 3.83333,0 7.42991,0.653429 10.79102,1.958984 3.36111,1.305556 6.74935,3.388891 10.16601,6.25 h 0.625 v -9.791015 c -4.05555,-2.027777 -7.7487,-3.444445 -11.08203,-4.25 -3.30555,-0.805555 -6.62565,-1.208985 -9.95898,-1.208985 z m 82.91601,0.708985 v 8.125 h 8.83399 v -8.125 z m 352.95902,0 v 8.125 h 8.8339 v -8.125 z M 14.367151,21.423828 v 62.041016 h 8.25 v -29.875 H 49.574182 V 46.257813 H 22.617151 v -17.5 h 31.375 v -7.333985 z m 105.999999,0 v 6.333985 h 8.125 v 49.375 h -8.125 v 6.332031 h 24.5 v -6.332031 h -8.125 v -49.375 h 8.125 v -6.333985 z m 137.29102,0 v 62.041016 h 8.25 v -29.875 h 10.11718 c -0.0238,-0.142021 -0.0438,-0.28096 -0.0684,-0.423828 -0.13223,-0.770575 -0.34355,-1.527546 -0.44531,-2.302734 -0.24877,-1.895094 -0.39215,-3.291045 -0.50586,-4.605469 h -9.09765 v -17.5 h 31.375 v -7.333985 z m 655.125,0 v 6.333985 h 8.125 v 49.375 h -8.125 v 6.332031 h 24.5 v -6.332031 h -8.125 v -49.375 h 8.125 v -6.333985 z m 92.08393,2.125 v 13.375 h -5.29292 v 6.583985 h 5.29292 v 24.75 c 0,5.638886 1.2349,9.735461 3.7071,12.291015 2.4722,2.555555 6.084,3.833985 10.834,3.833985 1.3611,0 2.9027,-0.125 4.625,-0.375 1.75,-0.25 3.3617,-0.570096 4.8339,-0.958985 v -7.041015 h -0.4179 c -0.6111,0.25 -1.6111,0.568142 -3,0.957031 -1.3889,0.361111 -2.7223,0.542969 -4,0.542969 -2.1945,0 -3.8327,-0.25 -4.916,-0.75 -1.0556,-0.527778 -1.8889,-1.347874 -2.5,-2.458985 -0.6667,-1.194443 -1.0549,-2.472873 -1.1661,-3.833984 -0.1111,-1.388888 -0.1679,-3.305556 -0.1679,-5.75 V 43.507813 h 16.1679 v -6.583985 h -16.1679 v -13.375 z m 289.2911,0 v 13.375 h -5.2911 v 6.583985 h 5.2911 v 24.75 c 0,5.638886 1.2367,9.735461 3.7089,12.291015 2.4723,2.555555 6.0821,3.833985 10.8321,3.833985 1.3611,0 2.9028,-0.125 4.625,-0.375 1.75,-0.25 3.3617,-0.570096 4.834,-0.958985 v -7.041015 h -0.4161 c -0.6111,0.25 -1.6111,0.568142 -3,0.957031 -1.3888,0.361111 -2.7222,0.542969 -4,0.542969 -2.1944,0 -3.8346,-0.25 -4.9179,-0.75 -1.0556,-0.527778 -1.8889,-1.347874 -2.5,-2.458985 -0.6667,-1.194443 -1.0549,-2.472873 -1.166,-3.833984 -0.1112,-1.388888 -0.1661,-3.305556 -0.1661,-5.75 V 43.507813 h 16.1661 v -6.583985 h -16.1661 v -13.375 z M 451.19918,35.632813 c -6.58333,0 -11.81814,2.208335 -15.70703,6.625 -3.86111,4.388887 -5.79297,10.373701 -5.79297,17.957031 0,7.58333 1.93186,13.570097 5.79297,17.958984 3.88889,4.388888 9.1237,6.583985 15.70703,6.583985 6.52778,0 11.73611,-2.195097 15.625,-6.583985 3.88889,-4.388887 5.83399,-10.375654 5.83399,-17.958984 0,-7.58333 -1.9451,-13.568144 -5.83399,-17.957031 -3.88889,-4.416665 -9.09722,-6.625 -15.625,-6.625 z m 136.08399,0 c -6.77778,0 -12.24935,2.234811 -16.41602,6.707031 -4.13889,4.47222 -6.20898,10.513892 -6.20898,18.125 0,7.694441 2.16666,13.639542 6.5,17.833984 4.33333,4.166665 10.36176,6.25 18.08398,6.25 3.02778,0 5.91602,-0.375 8.66602,-1.125 2.75,-0.749999 5.44509,-1.679904 8.08398,-2.791015 v -8.542969 h -0.41797 c -1.36111,1.222222 -3.65278,2.472223 -6.875,3.75 -3.19444,1.25 -6.37435,1.875 -9.54101,1.875 -2.38889,0 -4.58399,-0.333333 -6.58399,-1 -1.97222,-0.666666 -3.68055,-1.666667 -5.125,-3 -1.5,-1.36111 -2.6799,-3.095921 -3.54101,-5.207031 -0.86111,-2.138888 -1.29102,-4.63889 -1.29102,-7.5 h 34.29102 v -4.25 c 0,-6.749997 -1.70834,-11.958335 -5.125,-15.625 -3.38889,-3.666665 -8.22223,-5.5 -14.5,-5.5 z m 386.875,0 c -2.75,0 -5.42991,0.568143 -8.04102,1.707031 -2.61111,1.138889 -5.13954,2.722223 -7.58398,4.75 v -5.166016 h -7.83399 v 46.541016 h 7.83399 v -34.75 c 2.13888,-1.638888 4.37565,-2.98546 6.70898,-4.041016 2.33333,-1.055555 4.56814,-1.583984 6.70703,-1.583984 2.08333,0 3.77843,0.291667 5.08399,0.875 1.30555,0.555555 2.30555,1.417318 3,2.583984 0.66666,1.055556 1.125,2.527128 1.375,4.416016 0.25,1.86111 0.375,3.861112 0.375,6 v 26.5 h 7.83398 V 53.257813 c 0,-5.694442 -1.3201,-10.056208 -3.95898,-13.083985 -2.63889,-3.027776 -6.47223,-4.541015 -11.5,-4.541015 z m 83.50003,0 c -6.7778,0 -12.2494,2.234811 -16.4161,6.707031 -4.1388,4.47222 -6.2089,10.513892 -6.2089,18.125 0,7.694441 2.1666,13.639542 6.5,17.833984 4.3333,4.166665 10.3617,6.25 18.0839,6.25 3.0278,0 5.9161,-0.375 8.6661,-1.125 2.75,-0.749999 5.4451,-1.679904 8.0839,-2.791015 v -8.542969 h -0.4179 c -1.3611,1.222222 -3.6528,2.472223 -6.875,3.75 -3.1945,1.25 -6.3744,1.875 -9.541,1.875 -2.3889,0 -4.584,-0.333333 -6.584,-1 -1.9722,-0.666666 -3.6806,-1.666667 -5.125,-3 -1.5,-1.36111 -2.6799,-3.095921 -3.541,-5.207031 -0.8612,-2.138888 -1.2911,-4.63889 -1.2911,-7.5 h 34.2911 v -4.25 c 0,-6.749997 -1.7084,-11.958335 -5.125,-15.625 -3.3889,-3.666665 -8.2223,-5.5 -14.5,-5.5 z m 95.7089,0 c -2.5555,0 -5.1256,0.554905 -7.7089,1.666015 -2.5834,1.083333 -4.7785,2.611763 -6.584,4.583985 -1.9445,2.11111 -3.4861,4.62435 -4.625,7.541015 -1.1111,2.888888 -1.666,6.333987 -1.666,10.333985 0,7.305552 1.625,12.972224 4.875,17 3.2777,3.999998 7.6944,6 13.25,6 3.3333,0 6.0701,-0.458334 8.2089,-1.375 2.1667,-0.944444 4.4299,-2.361112 6.7911,-4.25 v 4.25 c 0,1.888888 -0.2084,3.597223 -0.625,5.125 -0.4167,1.527777 -1.1118,2.832683 -2.084,3.916015 -0.9722,1.138889 -2.3321,2.027128 -4.0821,2.666016 -1.75,0.638889 -3.9583,0.958984 -6.625,0.958984 -2.7777,0 -5.5562,-0.375 -8.3339,-1.125 -2.7778,-0.722221 -4.8063,-1.333984 -6.084,-1.833984 h -0.416 v 8 c 2.2777,0.638889 4.5826,1.125656 6.916,1.458986 2.3611,0.36111 4.7778,0.54101 7.25,0.54101 7.4444,0 12.9596,-1.846569 16.5429,-5.541012 3.5834,-3.694442 5.375,-9.486114 5.375,-17.375 v -41.25 h -7.3339 l -0.5,2 c -2.0278,-1.11111 -3.9577,-1.931206 -5.7911,-2.458984 -1.8055,-0.555555 -4.0555,-0.832031 -6.75,-0.832031 z m 55.125,0 c -6.7777,0 -12.2513,2.234811 -16.4179,6.707031 -4.1389,4.47222 -6.2071,10.513892 -6.2071,18.125 0,7.694441 2.1667,13.639542 6.5,17.833984 4.3334,4.166665 10.3599,6.25 18.0821,6.25 3.0277,0 5.916,-0.375 8.666,-1.125 2.75,-0.749999 5.4451,-1.679904 8.084,-2.791015 v -8.542969 h -0.416 c -1.3612,1.222222 -3.6528,2.472223 -6.875,3.75 -3.1945,1.25 -6.3744,1.875 -9.5411,1.875 -2.3888,0 -4.5839,-0.333333 -6.5839,-1 -1.9723,-0.666666 -3.6806,-1.666667 -5.125,-3 -1.5,-1.36111 -2.6799,-3.095921 -3.5411,-5.207031 -0.8611,-2.138888 -1.2929,-4.63889 -1.2929,-7.5 h 34.291 v -4.25 c 0,-6.749997 -1.7083,-11.958335 -5.125,-15.625 -3.3889,-3.666665 -8.2203,-5.5 -14.4981,-5.5 z m 54.9571,0 c -2.75,0 -5.4299,0.568143 -8.041,1.707031 -2.6112,1.138889 -5.1396,2.722223 -7.584,4.75 v -5.166016 h -7.8321 v 46.541016 h 7.8321 v -34.75 c 2.1389,-1.638888 4.3756,-2.98546 6.709,-4.041016 2.3333,-1.055555 4.5701,-1.583984 6.7089,-1.583984 2.0834,0 3.7765,0.291667 5.0821,0.875 1.3055,0.555555 2.3055,1.417318 3,2.583984 0.6666,1.055556 1.125,2.527128 1.375,4.416016 0.25,1.86111 0.375,3.861112 0.375,6 v 26.5 h 7.834 V 53.257813 c 0,-5.694442 -1.3201,-10.056208 -3.959,-13.083985 -2.6389,-3.027776 -6.4723,-4.541015 -11.5,-4.541015 z m 83.5,0 c -6.7778,0 -12.2494,2.234811 -16.416,6.707031 -4.1389,4.47222 -6.209,10.513892 -6.209,18.125 0,7.694441 2.1666,13.639542 6.5,17.833984 4.3333,4.166665 10.3617,6.25 18.084,6.25 3.0277,0 5.916,-0.375 8.666,-1.125 2.75,-0.749999 5.4451,-1.679904 8.084,-2.791015 v -8.542969 h -0.418 c -1.3611,1.222222 -3.6528,2.472223 -6.875,3.75 -3.1945,1.25 -6.3744,1.875 -9.541,1.875 -2.3889,0 -4.584,-0.333333 -6.584,-1 -1.9722,-0.666666 -3.6806,-1.666667 -5.125,-3 -1.5,-1.36111 -2.6799,-3.095921 -3.541,-5.207031 -0.8611,-2.138888 -1.291,-4.63889 -1.291,-7.5 h 34.291 v -4.25 c 0,-6.749997 -1.7084,-11.958335 -5.125,-15.625 -3.3889,-3.666665 -8.2223,-5.5 -14.5,-5.5 z m -622.66603,0.166015 c -2.80556,0 -5.65213,0.250001 -8.54102,0.75 -2.88889,0.5 -5.09722,0.958334 -6.625,1.375 v 7.958985 h 0.41602 c 2.69444,-1.027777 5.3062,-1.806207 7.83398,-2.333985 2.52778,-0.555555 4.81945,-0.833984 6.875,-0.833984 1.69444,0 3.31945,0.111762 4.875,0.333984 1.55556,0.222223 2.88889,0.652128 4,1.291016 1.16667,0.666667 2.05491,1.583334 2.66602,2.75 0.63888,1.166666 0.95898,2.640192 0.95898,4.417969 v 1.207031 c -4.55555,0.222222 -8.82075,0.555556 -12.79297,1 -3.97222,0.444444 -7.3737,1.292969 -10.20703,2.542969 -2.80555,1.249999 -4.97222,2.971572 -6.5,5.166015 -1.5,2.166666 -2.25,5.01324 -2.25,8.541016 0,4.305554 1.45834,7.847224 4.375,10.625 2.91667,2.777777 6.47157,4.167969 10.66602,4.167969 2.27777,0 4.26454,-0.223525 5.95898,-0.667969 1.69444,-0.416666 3.19445,-0.943143 4.5,-1.582031 1.11111,-0.5 2.24935,-1.166667 3.41602,-2 1.19444,-0.861111 2.13954,-1.527778 2.83398,-2 v 4.957031 h 7.79102 V 51.882813 c 0,-2.999999 -0.45834,-5.515192 -1.375,-7.542969 -0.91667,-2.027777 -2.25,-3.679254 -4,-4.957031 -1.77778,-1.305555 -3.88954,-2.222223 -6.33399,-2.75 -2.41666,-0.555555 -5.26324,-0.833985 -8.54101,-0.833985 z m 125.16601,0 c -2.80555,0 -5.65213,0.250001 -8.54101,0.75 -2.88889,0.5 -5.09723,0.958334 -6.625,1.375 v 7.958985 h 0.41601 c 2.69445,-1.027777 5.30621,-1.806207 7.83399,-2.333985 2.52777,-0.555555 4.81944,-0.833984 6.875,-0.833984 1.69444,0 3.31944,0.111762 4.875,0.333984 1.55555,0.222223 2.88889,0.652128 4,1.291016 1.16666,0.666667 2.0549,1.583334 2.66601,2.75 0.63889,1.166666 0.95899,2.640192 0.95899,4.417969 v 1.207031 c -4.55556,0.222222 -8.8188,0.555556 -12.79102,1 -3.97222,0.444444 -7.37565,1.292969 -10.20898,2.542969 -2.80556,1.249999 -4.97223,2.971572 -6.5,5.166015 -1.5,2.166666 -2.25,5.01324 -2.25,8.541016 0,4.305554 1.45833,7.847224 4.375,10.625 2.91666,2.777777 6.47157,4.167969 10.66601,4.167969 2.27778,0 4.26454,-0.223525 5.95899,-0.667969 1.69444,-0.416666 3.19444,-0.943143 4.5,-1.582031 1.11111,-0.5 2.24935,-1.166667 3.41601,-2 1.19445,-0.861111 2.13954,-1.527778 2.83399,-2 v 4.957031 h 7.79101 V 51.882813 c 0,-2.999999 -0.45833,-5.515192 -1.375,-7.542969 -0.91666,-2.027777 -2.25,-3.679254 -4,-4.957031 -1.77778,-1.305555 -3.88759,-2.222223 -6.33203,-2.75 -2.41667,-0.555555 -5.26519,-0.833985 -8.54297,-0.833985 z m -520.29101,1.125 v 30.208985 c 0,5.777775 1.36176,10.166017 4.08398,13.166015 2.72222,2.972221 6.52713,4.458985 11.41602,4.458985 2.91666,0 5.58333,-0.556858 8,-1.667969 2.41666,-1.111111 4.94509,-2.707683 7.58398,-4.791016 v 5.166016 h 7.83203 V 36.923828 h -7.83203 v 34.75 c -2.08333,1.638889 -4.33333,2.985461 -6.75,4.041016 -2.38889,1.055555 -4.59722,1.583984 -6.625,1.583984 -2.27778,0 -4.01454,-0.278429 -5.20898,-0.833984 -1.19445,-0.555555 -2.16602,-1.443794 -2.91602,-2.666016 -0.72222,-1.194443 -1.19575,-2.624349 -1.41797,-4.291015 -0.22222,-1.694444 -0.33203,-3.722874 -0.33203,-6.083985 v -26.5 z m 49.29101,0 18,23.333985 -18.16601,23.207031 h 9.125 l 13.29101,-17.875 13.20899,17.875 h 9.875 l -18.29102,-23.625 18.29102,-22.916016 h -9.16602 l -13.16797,17.583985 -13.125,-17.583985 z m 381.25,0 v 46.541016 h 7.83399 V 36.923828 Z m 18.29297,0 18,23.333985 -18.16797,23.207031 h 9.125 l 13.29297,-17.875 13.20703,17.875 h 9.875 l -18.29101,-23.625 18.29101,-22.916016 h -9.16601 l -13.16602,17.583985 -13.125,-17.583985 z m 334.66605,0 v 46.541016 h 7.8339 V 36.923828 Z m -525.79105,5.166016 c 4.16667,0 7.26324,1.125001 9.29102,3.375 2.05555,2.249999 3.09722,5.431859 3.125,9.542969 h -26.66602 c 0.33333,-3.666665 1.73481,-6.736763 4.20703,-9.208985 2.5,-2.472221 5.84853,-3.708984 10.04297,-3.708984 z m 470.37495,0 c 4.1667,0 7.2633,1.125001 9.2911,3.375 2.0555,2.249999 3.0972,5.431859 3.125,9.542969 h -26.6661 c 0.3334,-3.666665 1.7349,-6.736763 4.2071,-9.208985 2.5,-2.472221 5.8485,-3.708984 10.0429,-3.708984 z m 150.8321,0 c 4.1666,0 7.2632,1.125001 9.291,3.375 2.0555,2.249999 3.0972,5.431859 3.125,9.542969 h -26.666 c 0.3333,-3.666665 1.7367,-6.736763 4.209,-9.208985 2.5,-2.472221 5.8465,-3.708984 10.041,-3.708984 z m 138.459,0 c 4.1666,0 7.2632,1.125001 9.291,3.375 2.0555,2.249999 3.0972,5.431859 3.125,9.542969 h -26.666 c 0.3333,-3.666665 1.7348,-6.736763 4.207,-9.208985 2.5,-2.472221 5.8485,-3.708984 10.043,-3.708984 z m -895.33402,0.292969 c 4.19444,0 7.47288,1.471572 9.83399,4.416015 2.36111,2.916666 3.54101,7.388241 3.54101,13.416016 0,5.888887 -1.19314,10.333986 -3.58203,13.333984 -2.36111,2.972221 -5.6263,4.458985 -9.79297,4.458985 -4.22222,0 -7.51389,-1.500001 -9.875,-4.5 -2.36111,-3.027777 -3.54101,-7.459638 -3.54101,-13.292969 0,-6.027775 1.16666,-10.49935 3.5,-13.416016 2.36111,-2.944443 5.66601,-4.416015 9.91601,-4.416015 z m 703.54292,0.291015 c 1.7778,0 3.5543,0.208334 5.3321,0.625 1.8055,0.388889 3.7506,1.055556 5.834,2 v 25.375 c -1.9167,1.472222 -4.0285,2.652128 -6.334,3.541016 -2.2778,0.861111 -4.5543,1.292969 -6.8321,1.292969 -4.25,0 -7.2916,-1.348526 -9.125,-4.042969 -1.8333,-2.694443 -2.75,-6.65278 -2.75,-11.875 0,-5.499998 1.2349,-9.693143 3.7071,-12.582031 2.4722,-2.888888 5.8624,-4.333985 10.1679,-4.333985 z m -621.16792,0.125 c 1.97222,0 3.79232,0.179905 5.45899,0.541016 1.66666,0.361111 3.5549,1.01454 5.66601,1.958984 v 26.708985 c -1.97222,1.555555 -4.09722,2.832032 -6.375,3.832031 -2.27777,0.972222 -4.52778,1.458984 -6.75,1.458984 -4.16666,0 -7.19314,-1.429905 -9.08203,-4.291015 -1.88889,-2.888888 -2.83398,-7.097225 -2.83398,-12.625 0,-5.611109 1.22157,-9.944446 3.66601,-13 2.44445,-3.055554 5.86111,-4.583985 10.25,-4.583985 z m -250.72656,3.458985 c 0.10356,1.075704 0.23262,2.250149 0.43359,3.773437 0.0714,0.541385 0.24194,1.065583 0.33594,1.603516 0.0179,0.102515 0.17128,1.069211 0.31055,1.955078 h 8.93945 v -7.332031 z m -95.89844,6.291015 v 7.541016 h 26 v -7.541016 z m 549.79297,6.5 v 12.958985 c -1.94444,1.499999 -4.05621,2.791667 -6.33398,3.875 -2.27778,1.055555 -4.79102,1.582031 -7.54102,1.582031 -3.30555,0 -5.76389,-0.666667 -7.375,-2 -1.61111,-1.36111 -2.41797,-3.37435 -2.41797,-6.041016 0,-2.36111 0.6951,-4.207682 2.08399,-5.541015 1.38888,-1.361111 3.20898,-2.361112 5.45898,-3 1.88889,-0.527778 4.4438,-0.931207 7.66602,-1.208985 3.24999,-0.277777 6.07009,-0.486111 8.45898,-0.625 z m 125.16602,0 v 12.958985 c -1.94445,1.499999 -4.05621,2.791667 -6.33399,3.875 -2.27777,1.055555 -4.79101,1.582031 -7.54101,1.582031 -3.30556,0 -5.76389,-0.666667 -7.375,-2 -1.61111,-1.36111 -2.41602,-3.37435 -2.41602,-6.041016 0,-2.36111 0.69314,-4.207682 2.08203,-5.541015 1.38889,-1.361111 3.20899,-2.361112 5.45899,-3 1.88888,-0.527778 4.44379,-0.931207 7.66601,-1.208985 3.25,-0.277777 6.0701,-0.486111 8.45899,-0.625 z" />
  <path
     style="fill:none;stroke:#f5c211;stroke-width:3.8;stroke-linecap:round;stroke-linejoin:round;stroke-miterlimit:4;stroke-dasharray:none;stroke-opacity:1"
     d="M 30.139719,89.163338 C 178.32668,27.62808 80.372586,2.51164 178.32668,27.62808 276.28077,52.74451 0,0 0,0"
     id="path941" />
  <rect
     style="fill:#182231;fill-opacity:1;stroke:#182231;stroke-width:9.97711;stroke-linecap:round;stroke-linejoin:round;stroke-miterlimit:3.4;stroke-opacity:0.94902"
     id="rect22"
     width="48.988907"
     height="106.1832"
     x="249.02344"
     y="9.375" />
  <text
     xml:space="preserve"
     id="text24"
     style="line-height:1.25;font-family:sans-serif;font-size:37.33333333px;white-space:pre;shape-inside:url(#rect26);" />
  <text
     xml:space="preserve"
     id="text30"
     style="font-style:normal;font-variant:normal;font-weight:normal;font-stretch:normal;font-size:85.3333px;line-height:1.25;font-family:Calibri;-inkscape-font-specification:Calibri;white-space:pre;shape-inside:url(#rect32);fill:#ffffff;"
     transform="matrix(1.4289436,0,0,1.1835759,-84.682634,-23.018765)"><tspan
       x="231.4668"
       y="89.029917"><tspan
         style="font-style:normal;font-variant:normal;font-weight:normal;font-stretch:normal;font-size:85.3333px;font-family:Calibri;-inkscape-font-specification:Calibri;fill:#ffffff">F</tspan></tspan></text>
  <text
     xml:space="preserve"
     id="text36"
     style="font-size:37.3333px;line-height:1.25;font-family:sans-serif;white-space:pre;shape-inside:url(#rect38);" />
  <path
     style="fill:#f5c211;stroke:#f5c211;stroke-width:1.2;stroke-linecap:butt;stroke-linejoin:miter;stroke-miterlimit:4;stroke-dasharray:none;stroke-opacity:1"
     d="m 232.35485,88.683374 c 1140.62505,3.125 1147.25985,29.472656 1140.62505,3.125 -6.6348,-26.347656 -4.6875,17.120696 -4.6875,17.120696 v 0"
     id="path42" />
</svg>
